{"title":"Heaven Is for Real 2014 ENG CAM SUB x264 AAC-NoGrp","uid":10010133,"size":578541919,"categoryP":"video","categoryS":"movies","magnet":"?xt=urn:btih:47a590f75140995b8172affbac5d5dc5f44cba98&amp;dn=Heaven+Is+for+Real+2014+ENG+CAM+SUB+x264+AAC-NoGrp&amp;tr=udp%3A%2F%2Ftracker.openbittorrent.com%3A80&amp;tr=udp%3A%2F%2Fopen.demonii.com%3A1337&amp;tr=udp%3A%2F%2Ftracker.coppersurfer.tk%3A6969&amp;tr=udp%3A%2F%2Fexodus.desync.com%3A6969","seeders":25,"leechers":1,"uploader":"TeXTX","files":4,"time":1398092521,"description":"[center][img]http://s17.postimg.org/ix2tmjenz/MV5_BNjc3_Mz_Yz_MTUz_NF5_BMl5_Ban_Bn_Xk_Ft_ZTgw_NTYz_Nz_I2_MDE.jpg[/img]\n &lt;a href=&quot;\nhttp://www.imdb.com/title/tt1929263/&quot; rel=&quot;nofollow&quot; target=&quot;_NEW&quot;&gt;\nhttp://www.imdb.com/title/tt1929263/&lt;/a&gt;\n\nA small-town father must find the courage and conviction to share his son's extraordinary, life-changing experience with the world.\n\nGeneral\nComplete name                            : Heaven Is for Real 2014 ENG CAM SPA SUB x264 AAC-NoGrp.MP4\nFormat                                   : MPEG-4\nFormat profile                           : Base Media\nCodec ID                                 : isom\nFile size                                : 552 MiB\nDuration                                 : 1h 31mn\nOverall bit rate mode                    : Variable\nOverall bit rate                         : 839 Kbps\nWriting application                      : Lavf54.63.104\n\nVideo\nID                                       : 1\nFormat                                   : AVC\nFormat/Info                              : Advanced Video Codec\nFormat profile                           : &lt;a class=&quot;__cf_email__&quot; href=&quot;/cdn-cgi/l/email-protection&quot; data-cfemail=&quot;1b53727c735b5728352b&quot;&gt;[email&amp;#160;protected]&lt;/a&gt;&lt;script cf-hash='f9e31' type=&quot;text/javascript&quot;&gt;\n/* &lt;![CDATA[ */!function(){try{var t=&quot;currentScript&quot;in document?document.currentScript:function(){for(var t=document.getElementsByTagName(&quot;script&quot;),e=t.length;e--;)if(t[e].getAttribute(&quot;cf-hash&quot;))return t[e]}();if(t&amp;&amp;t.previousSibling){var e,r,n,i,c=t.previousSibling,a=c.getAttribute(&quot;data-cfemail&quot;);if(a){for(e=&quot;&quot;,r=parseInt(a.substr(0,2),16),n=2;a.length-n;n+=2)i=parseInt(a.substr(n,2),16)^r,e+=String.fromCharCode(i);e=document.createTextNode(e),c.parentNode.replaceChild(e,c)}}}catch(u){}}();/* ]]&gt; */&lt;/script&gt;\nFormat settings, CABAC                   : Yes\nFormat settings, ReFrames                : 4 frames\nCodec ID                                 : avc1\nCodec ID/Info                            : Advanced Video Coding\nDuration                                 : 1h 31mn\nBit rate                                 : 750 Kbps\nWidth                                    : 720 pixels\nHeight                                   : 384 pixels\nDisplay aspect ratio                     : 1.85:1\nFrame rate mode                          : Constant\nFrame rate                               : 23.976 fps\nColor space                              : YUV\nChroma subsampling                       : 4:2:0\nBit depth                                : 8 bits\nScan type                                : Progressive\nBits/(Pixel*Frame)                       : 0.113\nStream size                              : 494 MiB (90%)\nWriting library                          : x264 core 120 r2151 a3f4407\n\nAudio\nID                                       : 2\nFormat                                   : AAC\nFormat/Info                              : Advanced Audio Codec\nFormat profile                           : LC\nCodec ID                                 : 40\nDuration                                 : 1h 31mn\nDuration_LastFrame                       : -35ms\nBit rate mode                            : Variable\nBit rate                                 : 82.7 Kbps\nMaximum bit rate                         : 128 Kbps\nChannel(s)                               : 2 channels\nChannel positions                        : Front: L R\nSampling rate                            : 24.0 KHz\nCompression mode                         : Lossy\nStream size                              : 54.4 MiB (10%)\n\n[img]http://s7.postimg.org/vf4y4on4b/vlcsnap_2014_04_21_09h39m47s5.png[/img]\n[img]http://s7.postimg.org/br16ze6ff/vlcsnap_2014_04_21_09h40m22s66.png[/img]\n[img]http://s7.postimg.org/8eyascpaj/vlcsnap_2014_04_21_09h40m37s249.png[/img]\n[img]http://s7.postimg.org/w8hjxat57/vlcsnap_2014_04_21_09h41m16s118.png[/img][/center]","torrent":{"xt":"urn:btih:47a590f75140995b8172affbac5d5dc5f44cba98","amp;dn":"Heaven+Is+for+Real+2014+ENG+CAM+SUB+x264+AAC-NoGrp","amp;tr":["udp%3A%2F%2Ftracker.openbittorrent.com%3A80","udp%3A%2F%2Fopen.demonii.com%3A1337","udp%3A%2F%2Ftracker.coppersurfer.tk%3A6969","udp%3A%2F%2Fexodus.desync.com%3A6969"],"infoHash":"47a590f75140995b8172affbac5d5dc5f44cba98","infoHashBuffer":{"type":"Buffer","data":[71,165,144,247,81,64,153,91,129,114,175,251,172,93,93,197,244,76,186,152]},"announce":[],"urlList":[]}}